<?xml version="1.0" encoding="UTF-8"?>
<svg id="_Слой_2" data-name="Слой_2" xmlns="http://www.w3.org/2000/svg" viewBox="0 0 17.16 13">
  <defs>
    <style>
      .cls-1 {
        fill: #111;
      }

      .cls-2 {
        fill: #ffd497;
      }

      .cls-3 {
        fill: #262525;
      }
    </style>
  </defs>
  <g id="_Шар_1" data-name="Шар_1">
    <g>
      <rect class="cls-1" x="5.83" y="0" width="4.96" height="3.66" rx="1.83" ry="1.83"/>
      <path d="M2.92,2.95c.13-.13.28-.17.35-.19h10.1c.08.02.26.07.42.22.14.13.19.28.22.35,1.05,3.02,2.1,6.03,3.15,9.05-2.54-.37-5.51-.63-8.82-.62-3.11.01-5.91.27-8.34.62.91-3,1.81-6,2.72-9,0-.06.03-.27.2-.44Z"/>
      <ellipse class="cls-2" cx="8.58" cy="12.39" rx="8.58" ry=".62"/>
      <path class="cls-3" d="M4.24,3.16c.84-.03,1.68-.05,2.52-.08-.82,2.7-1.64,5.4-2.47,8.1-.97.15-1.95.3-2.92.46.96-2.82,1.91-5.65,2.87-8.47Z"/>
      <path class="cls-3" d="M7.21,3.16h.72c-.78,2.63-1.56,5.25-2.35,7.88-.29.05-.58.09-.87.14.83-2.67,1.66-5.34,2.49-8.02Z"/>
    </g>
  </g>
</svg>