<svg width="16" height="16" viewBox="0 0 16 16" fill="none" xmlns="http://www.w3.org/2000/svg">
<path d="M5.5 0.5C5.5 0.223858 5.27614 0 5 0C4.72386 0 4.5 0.223858 4.5 0.5H5.5ZM4.5 3.5C4.5 3.77614 4.72386 4 5 4C5.27614 4 5.5 3.77614 5.5 3.5H4.5ZM11.5 0.5C11.5 0.223858 11.2761 0 11 0C10.7239 0 10.5 0.223858 10.5 0.5H11.5ZM10.5 3.5C10.5 3.77614 10.7239 4 11 4C11.2761 4 11.5 3.77614 11.5 3.5H10.5ZM8 10.5C7.72386 10.5 7.5 10.7239 7.5 11C7.5 11.2761 7.72386 11.5 8 11.5V10.5ZM8.0075 11.5C8.28364 11.5 8.5075 11.2761 8.5075 11C8.5075 10.7239 8.28364 10.5 8.0075 10.5V11.5ZM11 10.5C10.7239 10.5 10.5 10.7239 10.5 11C10.5 11.2761 10.7239 11.5 11 11.5V10.5ZM11.0075 11.5C11.2836 11.5 11.5075 11.2761 11.5075 11C11.5075 10.7239 11.2836 10.5 11.0075 10.5V11.5ZM5 10.5C4.72386 10.5 4.5 10.7239 4.5 11C4.5 11.2761 4.72386 11.5 5 11.5V10.5ZM5.0075 11.5C5.28364 11.5 5.5075 11.2761 5.5075 11C5.5075 10.7239 5.28364 10.5 5.0075 10.5V11.5ZM3.5 2.5H12.5V1.5H3.5V2.5ZM14.25 4.25V13.25H15.25V4.25H14.25ZM12.5 15H3.5V16H12.5V15ZM1.75 13.25V4.25H0.75V13.25H1.75ZM3.5 15C2.5335 15 1.75 14.2165 1.75 13.25H0.75C0.75 14.7688 1.98122 16 3.5 16V15ZM14.25 13.25C14.25 14.2165 13.4665 15 12.5 15V16C14.0188 16 15.25 14.7688 15.25 13.25H14.25ZM12.5 2.5C13.4665 2.5 14.25 3.2835 14.25 4.25H15.25C15.25 2.73122 14.0188 1.5 12.5 1.5V2.5ZM3.5 1.5C1.98122 1.5 0.75 2.73122 0.75 4.25H1.75C1.75 3.2835 2.5335 2.5 3.5 2.5V1.5ZM1.25 7H14.75V6H1.25V7ZM4.5 0.5V3.5H5.5V0.5H4.5ZM10.5 0.5V3.5H11.5V0.5H10.5ZM8 11.5H8.0075V10.5H8V11.5ZM11 11.5H11.0075V10.5H11V11.5ZM5 11.5H5.0075V10.5H5V11.5Z" fill="#FAF6D2"/>
</svg>
