<svg width="18" height="18" viewBox="0 0 18 18" fill="none" xmlns="http://www.w3.org/2000/svg">
<path d="M2.51677 15.6216C2.44585 15.8885 2.6047 16.1623 2.87158 16.2332C3.13846 16.3042 3.4123 16.1453 3.48323 15.8784L2.51677 15.6216ZM14.5168 15.8784C14.5877 16.1453 14.8615 16.3042 15.1284 16.2332C15.3953 16.1623 15.5542 15.8885 15.4832 15.6216L14.5168 15.8784ZM3.48323 15.8784C4.11166 13.5137 6.33577 11.75 9 11.75V10.75C5.89083 10.75 3.2638 12.8106 2.51677 15.6216L3.48323 15.8784ZM9 11.75C11.6642 11.75 13.8883 13.5137 14.5168 15.8784L15.4832 15.6216C14.7362 12.8106 12.1092 10.75 9 10.75V11.75ZM11.5 5.25C11.5 6.63071 10.3807 7.75 9 7.75V8.75C10.933 8.75 12.5 7.183 12.5 5.25H11.5ZM9 7.75C7.61929 7.75 6.5 6.63071 6.5 5.25H5.5C5.5 7.183 7.067 8.75 9 8.75V7.75ZM6.5 5.25C6.5 3.86929 7.61929 2.75 9 2.75V1.75C7.067 1.75 5.5 3.317 5.5 5.25H6.5ZM9 2.75C10.3807 2.75 11.5 3.86929 11.5 5.25H12.5C12.5 3.317 10.933 1.75 9 1.75V2.75Z" fill="#33230A"/>
</svg>
