<?xml version="1.0" encoding="UTF-8"?>
<svg id="_Слой_2" data-name="Слой_2" xmlns="http://www.w3.org/2000/svg" xmlns:xlink="http://www.w3.org/1999/xlink" viewBox="0 0 83.92 57.69">
  <defs>
    <style>
      .cls-1 {
        fill: none;
      }

      .cls-2 {
        fill: #0c0b0b;
        opacity: .42;
      }

      .cls-3 {
        clip-path: url(#clippath);
      }
    </style>
    <clipPath id="clippath">
      <rect class="cls-1" width="83.92" height="57.69"/>
    </clipPath>
  </defs>
  <g id="_Шар_1" data-name="Шар_1">
    <g class="cls-3">
      <path class="cls-2" d="M65.28,55.88c.51.07.76.13,1.01.13.81,0,1.04.44,1.03,1.17-.01.74-.37,1.03-1.08,1.03-.64,0-1.29.07-1.93.08-5.66.07-11.32.12-16.98.19-1.26.01-1.46.22-1.56,1.43-.16,1.79-.35,3.58-.49,5.38-.13,1.62-.21,3.25-.3,4.85.2.04.27.07.33.06.38-.08.75-.16,1.12-.27,5.3-1.49,10.62-2.86,16.2-2.77.44,0,.9-.28,1.33-.49.94-.46,1.88-.93,2.77-1.47.39-.24.85-.63.96-1.03.36-1.38.52-2.82.86-4.21.56-2.26-.21-4.21-1.17-6.29-.72.77-1.33,1.41-2.08,2.21ZM51.69,77.74c.31.63.43.92.59,1.19,1.98,3.31,3.14,6.88,3.63,10.7.36,2.87.81,5.72,1.22,8.59.12.83.52,1.47,1.28,1.81,1.59.7,3.08,1.48,3.3,3.54.09-.03.17-.07.26-.1,1.42-7.78,2.84-15.56,4.28-23.47-.56.04-1,.05-1.43.12-1.81.3-3.61.65-5.42.91-.39.06-1.02-.08-1.17-.34-.16-.27.07-.84.26-1.2.2-.4.56-.71.99-1.22-2.65-.18-5.07-.34-7.77-.52ZM40.9,67.21c0-.61.04-1.15,0-1.69-.16-1.92-.38-3.84-.49-5.76-.06-.96-.5-1.26-1.4-1.27-6.42-.08-12.85-.2-19.27-.3-.31,0-.61,0-.93,0,.23,1.12.55,2.11.63,3.12.07.92.45,1.17,1.31,1.23.77.05,1.68.15,2.24.6.84.67,1.71.9,2.72,1.04,3.2.47,6.41.94,9.59,1.55,1.88.36,3.71.97,5.6,1.49ZM41.28,78.33c-.24.31-.32.37-.35.46-1.14,3.41-2.28,6.83-3.41,10.24-.06.18-.03.38-.08.56-.21.91-.38,1.83-.68,2.71-.08.24-.55.42-.87.48-.57.1-1.38-.14-1.68.17-.34.35-.24,1.14-.33,1.74-.03.19-.08.38-.12.57-.27,1.33-1.28,2.59-.34,4.02.05,3.65,2.44,5.61,5.27,7.21.51.29,1.12.39,1.8.61.68-9.6,1.38-19.04.77-28.76ZM19.58,94.36c2.49-4.72,3.42-9.75,5.09-14.54-.31.16-.57.36-.64.62-.25.97-.87,1.17-1.76.98-1.1-.24-2.2-.46-3.31-.66-1.57-.3-1.81-.12-1.56,1.49.58,3.78,1.24,7.54,1.87,11.31.03.2.15.39.31.8ZM-.14,70.87c-.25-1.89-.24-1.92-2.05-2.25-.81-.15-1.16-.52-1.11-1.37.06-1.03.02-2.06.02-3.09,0-1.17,0-2.34,0-3.5l-.23-.14c-.5,1.06-1.18,1.83-2.57,1.48,1.1,4.16,2.11,8.11,3.2,12.04.21.75.65,1.47,1.11,2.12.68.98,1.67,1.5,2.88,1.47.69-.02,1.38-.1,2.2-.16-1.48-1.91-2.02-4.18-2.52-6.48-.06-.29-.34-.54-.58-.92-.15.34-.23.51-.35.78ZM27.89,107.25c.49,2.28,1.67,2.64,3.94,1.67-1.4-.5-2.43-1.55-3.94-1.67ZM61.49,54.06c-.39-1.04-.73-1.95-1.07-2.85-.08,0-.16,0-.24-.01-.34.92-.67,1.84-1.05,2.87h2.36ZM62.43,55.85c-.39-.5-.73-1.2-.93-1.16-.86.16-1.68.54-2.51.84.03.1.07.21.1.31h3.34ZM30.66,55.26c-1.14-1.18-2.62-1.17-3.34,0h3.34ZM17.52,89.03c-.29,2.26-.16,4.44.58,6.58-.19-2.19-.39-4.38-.58-6.58ZM23.28,55.8s0,.01,0,.02h7.33s0-.01,0-.02h-7.33ZM40.15,47.41c-.15.43-.24.8-.29,1.06-.05.22-.06.33,0,.43.16.24.59.05.81.23.18.15.22.56-.19,1.58.05.11.24.62.01,1.16-.12.28-.31.46-.42.55.15.46.08.67-.01.78-.16.2-.46.14-.65.42-.08.11-.05.16-.13.29-.14.24-.37.36-.55.42,0,.07,0,.14,0,.21.26.06.52.12.78.17,2.82,0,5.64,0,8.47.01,1.29,0,3.69,0,4.98,0-.57-1.08-1.56-1.12-2.25-1.74h2.38c-.34-1.19-.64-2.23-.97-3.39h6.04c-.08-.41-.14-.69-.2-.97-.44-1.96-.8-3.95-1.33-5.89-.4-1.46-.97-2.88-1.58-4.26-.39-.87-.55-1.61.05-2.44.23-.32.31-.75.43-1.13.37-1.13,1.18-1.66,2.35-1.56.37.03.77.02,1.12-.09,1.1-.34,1.29-1.22.38-1.96-.44-.35-.44-.61-.16-1.01.5-.69.43-1.42.13-2.17-1.37-3.35.01-6.22,3.49-7.21,1.12-.32,2.27-.57,3.42-.78,1.39-.27,2.64.09,3.72,1.02,1.74,1.49,2.75,3.36,3.21,5.62.32,1.62.87,3.19,1.36,4.77.49,1.58,1.04,3.15,1.58,4.78-.43.16-.48.5-.25,1.01.29.64.39,1.38.75,1.98.8,1.35.37,2.68-.01,3.97-.23.78-.11,1.39.31,1.99.77,1.1.71,2.45-.21,3.45-.16.18-.35.33-.56.52.12.29.24.55.4.91-.46.15-1.03.53-1.31.38-.36-.19-.5-.81-.8-1.37-.12.28-.25.45-.27.63-.2,1.7-.44,3.4-.53,5.1-.04.69.31,1.4.43,2.11.11.66.24,1.34.22,2-.02.89.08,1.69.47,2.52,1.08,2.27,1.45,4.72,1.49,7.22.02,1.35-.48,2.55-1.27,3.63,1.45.72,3.17.1,3.83-1.43.36-.84.57-1.76.8-2.65.43-1.66.81-3.33,1.22-4.99.62-2.54.17-5.01-.46-7.47-.11-.43-.18-.95-.02-1.34.96-2.45,1.87-4.94,3.54-7.04.28-.35.68-.59,1.19-1.03,0,1.76.28,3.27-.05,4.64-1.56,6.53-3.28,13.03-4.96,19.54-.38,1.46-1.13,2.65-2.62,3.3,2.56,2.78,2.37,6.44,3.23,9.72,1.43,5.47,2.54,11.02,3.78,16.55.07.32.15.65.11.97-.02.22-.22.43-.34.64-.08-.02-.16-.05-.24-.07-.28-1.21-.56-2.42-.83-3.63-.1.02-.2.04-.3.06.08.59.14,1.19.23,1.78.1.62.22,1.23.34,1.91-.28.02-.51.04-.79.05-.07-.27-.14-.5-.19-.73-.98-4.8-1.94-9.6-2.96-14.39-.69-3.25-1.45-6.48-2.2-9.71-.34-1.47-.74-1.78-2.26-1.79-2.61-.01-5.23-.02-7.84,0-1.75,0-2.32.48-2.64,2.22-1.37,7.41-2.72,14.82-4.07,22.24-.12.66-.11,1.35-.16,2.09h-1.77c.12-1.54-.23-2.96-1.08-4.43-.82,1.44-.74,3-1.24,4.45h-5.36c1.65-.9,1.27-2.39,1.34-3.72.18-3.61-.71-7.03-2.05-10.33-1.44-3.55-3.04-7.04-4.57-10.56-.05-.12-.13-.23-.19-.34-.09,0-.17.02-.26.02.09,4.15.28,8.3.25,12.45-.02,4.16,1.07,8.26.69,12.47-.27.02-.45.05-.64.05-3.97-.02-7.95-.06-11.92-.08-.38,0-.76.06-1.13.08-1.78.11-3.53-.06-5.21-.73-.24-.1-.5-.13-.84-.21.07.34.13.6.18.85-.05.06-.09.11-.14.17-.21-.17-.47-.32-.63-.53-.2-.27-.33-.59-.48-.89l-.2.05c.04.38.08.76.12,1.18-.5.24-.72.11-.88-.46-.3-1.06-.66-2.11-1.06-3.14-.09-.24-.4-.51-.65-.56-1.22-.26-1.79-1.28-2.51-2.09-.19-.22-.18-.81-.03-1.11.49-.93,1.05-1.84,1.68-2.7.59-.81.8-1.62.55-2.6-.57-2.22-.99-4.45-.48-6.77.12-.57-.19-1.24-.31-1.86-.08.01-.15.02-.23.03v2.52l-.09.02c-.22-1.38-.44-2.76-.65-4.14-.11-.67-.19-1.35-.32-2.01-.2-.98-.67-1.48-1.65-1.51-2.88-.1-5.77-.13-8.65-.18-.85-.02-1.08.6-1.23,1.27-.58,2.69-1.12,5.38-1.74,8.06-1.12,4.82-2.28,9.63-3.45,14.44-.13.52-.42.99-.64,1.48-.07-.03-.14-.06-.21-.08,0-.15-.02-.3,0-.44.9-4.7,1.77-9.41,2.71-14.1.56-2.82,1.19-5.64,1.87-8.43.22-.89.7-1.72,1.11-2.68-.35.27-.84.47-1.04.83-.42.75-.77,1.56-.99,2.39-2.04,7.65-4.04,15.31-6.05,22.96-.07.26-.16.52-.24.81-.74,0-.66-.45-.55-.93.74-3.21,1.45-6.42,2.23-9.62.3-1.24.81-2.42,1.1-3.66.23-.95.21-1.96.42-2.92.52-2.36,1.04-4.73,1.69-7.06.28-1,.84-1.93,1.34-2.85.3-.55.3-.84-.3-1.15-1.24-.63-1.82-1.77-2.12-3.05-.73-3.07-1.4-6.15-2.14-9.22-.79-3.31-1.66-6.6-2.44-9.9-.24-1-.36-2.04-.41-3.06-.05-.97.41-1.42,1.49-1.71.07.99.14,1.97.22,2.95.05,0,.1,0,.15,0,.11-.8.22-1.61.33-2.41.11,0,.23-.01.34-.02.14.87.28,1.74.41,2.61.03,0,.07,0,.1,0,.06-.42.12-.84.18-1.31,1.6,1.29,2.16,3.14,2.89,4.88.08,0,.15-.02.23-.02.27-1.67.56-3.34.8-5.02.32-2.32.66-4.63.87-6.96.32-3.49,2.13-6,4.97-7.83,1.06-.68,2.27-1.15,3.45-1.64.62-.26,1.09-.51,1.22-1.25.04-.25.46-.5.76-.62.23-.09.53.02.81.02.55,0,.71-.24.71-.81,0-2.2-.08-4.42.19-6.59.25-2.08,1.47-3.66,3.5-4.47.05-.02.11-.03.15-.06,1.33-1.22,2.68-.75,4.06-.09,1.01.48,2.05.87,3.09,1.27.52.2,1.07.35,1.64.53-.07.08-.17.19-.25.3.31.21.62.42.78.53.03.48-.08.97.11,1.22.69.87.04.95-.56,1.11-.05.01-.09.05-.19.12-.05.72-.11,1.47-.16,2.23-.04.64-.05,1.24-.53,1.82-.24.29-.08.99.05,1.47.21.76.24,1.32-.73,1.51-.22.04-.44.3-.59.51-.4.58-.78,1.17-1.13,1.78-.11.2-.13.46-.16.69-.11.79-.5,1.09-1.29.94-.32-.06-.63-.18-.94-.28-1.08-.33-1.54-.15-2.2.92.17.15.34.31.53.45,1.95,1.43,2.66,3.38,2.38,5.72-.1.86-.34,1.71-.45,2.57-.17,1.26-.27,2.53-.43,3.79-.08.64-.19,1.29-.34,1.92-.14.56-.11.98.12,1.24.24.26.64.26.86.26,3.57-.05,4.86-.41,5.57-.66.77-.27,1.01-.47,1.16-.68.15-.2.22-.4.46-.57.26-.19.57-.23.78-.23l-.04-.93c.71.02,1.62.04,2.69.06.65.01,1.1.02,1.71,0,.63-.02,1.15-.06,1.52-.1ZM58.75,34.26c1.02,1.14.91,2.42.61,3.73-.06.26-.14.53-.22.79-.39,1.29-.41,2.55.09,3.83.68,1.75,1.27,3.53,1.93,5.28.13.36.38.67.66,1.13.46-.84.77-1.46.61-2.29-.11-.54-.07-1.24.19-1.71.59-1.11,1.3-2.18,2.06-3.19,1.17-1.56,1.6-3.28,1.5-5.2-.09-1.68-1.53-2.77-3.09-2.26-.13.04-.26.09-.39.13-1.25.41-1.42.33-1.81-.89-.19-.58-.49-.68-.95-.31-.38.3-.75.62-1.18.98ZM49.81,38.16c-.24-.21-.52-.39-.83-.42-.37-.04-.75.15-.99.43-.22.25-.35.57-.42.89-.1.12-.21.28-.34.47-.15.22-.28.42-.37.56.06-.28.13-.55.2-.81.22-.86.44-1.63.64-2.28.11-.35.21-.66.29-.93.02.01.03.03.05.04.53-.09,1.08-.42,1.54-.7.33-.2.65-.45.86-.79.21-.33.29-.76.15-1.12-.16-.42-.6-.69-1.05-.75-.45-.06-.9.06-1.32.23-.37.15-.73.35-.95.68-.26.39-.27.92-.09,1.35.16.4.45.73.77,1.01-.1.27-.2.59-.32.95-.15.47-.31,1-.48,1.59.02-.12.03-.28.04-.47.01-.27.01-.5,0-.6.02-.36-.06-.77-.14-1.13-.07-.33-.19-.66-.41-.95-.23-.29-.58-.53-.96-.58-.43-.06-.82.14-1.03.44-.21.3-.25.67-.25,1.04,0,.33.06.68.28.97.26.35.73.58,1.18.64.43.06.85-.02,1.23-.15,0,.09-.02.19-.02.31-.02.35,0,.64.02.66-.05.16-.09.33-.14.5-.1.4-.2.82-.3,1.25-.02-.23-.06-.43-.11-.55,0,0,.02-.02.03-.03-.02-.37-.11-.74-.31-1.05-.2-.31-.54-.54-.91-.55-.31,0-.6.14-.87.31-.3.19-.58.43-.74.74-.16.31-.19.72,0,1.01.17.26.48.39.79.41.31.02.61-.07.89-.2.36-.16.76-.34,1.06-.6.02.14.05.34.06.58,0,.13,0,.25,0,.36-.08.38-.16.76-.24,1.15-.19,1.01-.33,1.98-.44,2.87,0,.05-.01.09-.02.14h-1.64c-.1-.31-.21-.63-.32-.95-.34-.95-.71-1.83-1.07-2.63-.02-.04-.04-.08-.05-.11-.02-.09-.05-.21-.08-.36-.07-.34-.14-.82-.17-1.35,0-.05,0-.09,0-.14.35-.08.72-.35,1.03-.59.24-.18.48-.42.65-.74.17-.32.26-.74.2-1.12-.07-.43-.35-.72-.64-.81s-.61,0-.91.15c-.26.13-.53.31-.7.62-.21.38-.26.9-.18,1.35.07.42.24.77.44,1.07,0,.07,0,.13,0,.2.03.54.11,1.02.2,1.36,0,0,0,.01,0,.02-.29-.61-.57-1.17-.82-1.64-.18-.34-.34-.63-.49-.88,0,0,0,0,0,0,.1-.44,0-.99-.1-1.46-.07-.34-.19-.69-.43-.99-.24-.3-.6-.55-.99-.6-.45-.06-.85.15-1.07.45-.21.31-.26.7-.25,1.08,0,.34.06.7.29,1.01.27.37.76.6,1.23.67.44.06.87-.01,1.26-.15.14.26.3.55.48.9.3.58.65,1.29,1,2.08.17.38.34.78.51,1.2-.05-.06-.09-.12-.15-.18-.2-.21-.41-.38-.58-.47-.02-.01-.04-.02-.06-.03.01-.01.03-.02.04-.03-.02-.38-.11-.77-.32-1.09-.21-.32-.57-.56-.95-.57-.32,0-.63.14-.9.32-.31.2-.6.45-.77.77-.17.33-.2.74,0,1.05.18.27.5.41.82.43.32.02.63-.08.93-.2.37-.16.78-.35,1.09-.62.03.02.05.03.08.05.15.1.35.27.54.47.17.18.3.37.4.51.13.33.26.67.39,1.01.11.31.21.61.31.91h-.6c-.09,0-.16.07-.16.16s.07.16.16.16c-.05,0-.08,0-.08.01,0,0,.16.02.41.02v1.08c0,.19-.06.38-.18.53-.03.04-.07.08-.11.11-.19.13-1.19.31-1.3,1.57-.12,1.26-.54,4.14.21,5.06.69.85,1.36.9,2.48.9h0c.05,0,.1,0,.15,0h.15c1.12,0,1.79-.05,2.48-.9.75-.92.33-3.79.21-5.06-.11-1.26-1.11-1.44-1.3-1.57-.04-.03-.08-.07-.11-.11-.12-.15-.18-.34-.18-.53v-1.08c.24,0,.38-.01.38-.02,0,0-.03,0-.08-.01.09,0,.16-.07.16-.16h0c0-.09-.07-.16-.16-.16h-.67s0-.09.02-.13c.11-.88.26-1.85.45-2.86.05-.28.11-.55.16-.81.02-.04.03-.12.05-.22.06-.28.12-.56.18-.83.09-.1.28-.35.49-.65.09-.14.18-.26.25-.37.26.33.67.58,1.03.8.27.16.56.29.87.32.31.02.64-.07.85-.31.24-.27.26-.68.14-1.02-.12-.34-.37-.61-.64-.85Z"/>
      <g>
        <path class="cls-2" d="M36.81,46.53s-1.73-1.71-1.26-3.17c.17-.53.48-.54.8-1.26.55-1.23.2-2.36.27-2.37.07,0,.54,1.19.15,2.48-.28.95-.75,1.02-.88,1.8-.23,1.36.95,2.5.92,2.52Z"/>
        <path class="cls-2" d="M37.32,47.12s.92-.91.67-1.68c-.09-.28-.25-.29-.43-.67-.29-.65-.11-1.25-.14-1.26-.04,0-.29.63-.08,1.32.15.5.4.54.47.95.12.72-.5,1.33-.49,1.34Z"/>
      </g>
      <path class="cls-2" d="M55.59,49.11s1.14-1.13.83-2.1c-.11-.35-.31-.36-.53-.83-.37-.81-.13-1.56-.18-1.57-.04,0-.36.78-.1,1.64.19.63.49.67.58,1.19.15.9-.63,1.65-.61,1.67Z"/>
    </g>
  </g>
</svg>