<?xml version="1.0" encoding="UTF-8"?>
<svg id="_Слой_2" data-name="Слой_2" xmlns="http://www.w3.org/2000/svg" viewBox="0 0 47.78 24.7">
  <g id="_Шар_1" data-name="Шар_1">
    <polygon points="29.13 22.2 45.71 8.64 47.78 11.01 30.98 24.11 29.13 22.2"/>
    <path d="M0,11.21c5.63,4.37,11.25,8.75,16.88,13.12-.2.13-.41.25-.61.38l15.38-.05c-.22-.18-.44-.36-.67-.54-.28-.5-.8-1.28-1.69-1.97-.64-.5-1.26-.78-1.72-.96L34.11,1.12c-.87-.3-1.74-.59-2.61-.89-2.29,6.75-4.59,13.5-6.88,20.25h-2.06c-2.01-6.83-4.03-13.66-6.04-20.48-1.04.46-2.09.92-3.13,1.38,2.15,6.57,4.31,13.15,6.46,19.72-.52.35-1.04.71-1.56,1.06C12.75,17.68,7.2,13.21,1.66,8.74l-1.66,2.46Z"/>
  </g>
</svg>