<?xml version="1.0" encoding="UTF-8"?>
<svg id="_Слой_2" data-name="Слой_2" xmlns="http://www.w3.org/2000/svg" viewBox="0 0 103.58 40.61">
  <defs>
    <style>
      .cls-1 {
        fill: #fff;
      }
    </style>
  </defs>
  <g id="_Шар_1" data-name="Шар_1">
    <g>
      <path class="cls-1" d="M.38,20.32c.05,2.02.39,3.99.98,5.9.57,1.83,1.4,3.55,2.48,5.14.97,1.42,2.08,2.7,3.37,3.83,1.52,1.33,3.2,2.4,5.04,3.23,1.62.73,3.3,1.24,5.04,1.52.87.14,1.76.17,2.65.24.08,0,.18-.02.25,0,.13.05.24.14.36.21-.12.07-.23.2-.35.2-.63,0-1.27,0-1.9-.06-1.91-.19-3.76-.63-5.53-1.36-1.78-.74-3.44-1.7-4.97-2.89-1.61-1.26-3.02-2.69-4.15-4.38-.78-1.18-1.43-2.45-2.04-3.73-.69-1.45-1.09-3-1.34-4.58-.29-1.84-.34-3.69-.13-5.55.2-1.73.6-3.4,1.22-5.01.83-2.14,1.98-4.1,3.47-5.84,1.65-1.91,3.56-3.48,5.79-4.69,1.74-.94,3.56-1.63,5.48-2.03,2.09-.44,4.21-.64,6.33-.31,1.35.21,2.72.43,4.03.83,2.16.65,4.14,1.7,5.95,3.06,2.23,1.67,4.04,3.7,5.44,6.11,1.02,1.75,1.8,3.61,2.21,5.58.28,1.31.35,2.67.52,4,.02.12.03.26,0,.38-.05.15-.14.28-.22.42-.08-.13-.22-.26-.24-.4-.07-.77-.07-1.55-.18-2.31-.16-1.05-.36-2.1-.63-3.13-.43-1.6-1.12-3.09-1.97-4.51-1.25-2.08-2.82-3.88-4.74-5.4-1.62-1.29-3.4-2.3-5.32-3.03-2.63-1-5.37-1.38-8.19-1.22-1.97.11-3.87.5-5.7,1.19-2.02.76-3.88,1.81-5.55,3.19-1.95,1.6-3.55,3.48-4.79,5.69-1.05,1.86-1.8,3.82-2.19,5.91-.23,1.25-.32,2.53-.47,3.8Z"/>
      <path class="cls-1" d="M74.67,14.75c.72.44.88,1.03.79,1.72-.03.22-.04.46,0,.67.13.61-.25.96-.61,1.33-.07.07-.2.11-.31.11-1.95,0-3.91,0-5.9,0v-7.68h1.01c1.59,0,3.18,0,4.77,0,.45,0,1.02.56,1.03,1.02,0,.32-.02.65,0,.97.06.73,0,1.4-.79,1.85ZM70.18,13.94h3.69v-1.47h-3.69v1.47ZM70.18,16.99h3.69v-1.43h-3.69v1.43Z"/>
      <path class="cls-1" d="M59.63,13.18h-1.49c-.02-.22-.03-.46-.05-.71h-3.76v1.49c.37,0,.75,0,1.12,0,1.04,0,2.08,0,3.12,0,.42,0,1.07.62,1.07,1.03,0,.87,0,1.75,0,2.62,0,.35-.65.97-1,.97-1.63,0-3.26,0-4.9,0-.29,0-1-.6-1.02-.88-.03-.31,0-.62,0-.93,0-.15,0-.3,0-.49h1.54c.02.22.03.44.05.69h3.79c0-.42.02-.83-.02-1.25,0-.08-.23-.2-.36-.2-1.25-.02-2.51-.03-3.76,0-.5.02-.83-.21-1.14-.51-.08-.07-.1-.22-.1-.34,0-.91,0-1.83,0-2.74,0-.42.62-1.03,1.03-1.03,1.62,0,3.24,0,4.85,0,.31,0,1,.59,1.03.9.03.31,0,.62,0,.93,0,.14-.01.27-.02.43Z"/>
      <path class="cls-1" d="M80.42,29.99h-1.51v-7.64c.1,0,.21-.02.32-.02,1.83,0,3.66,0,5.49,0,.47,0,1.07.6,1.07,1.07,0,.97-.02,1.94,0,2.91.01.45-.06.83-.47,1.09-.1.07-.17.18-.23.24.24.37.55.69.66,1.08.11.39.02.83.02,1.27h-1.5s-.05-.06-.05-.08c.19-.8-.51-1.1-.89-1.57-.38-.48-.86-.7-1.49-.62-.46.06-.92.01-1.44.01v2.26ZM84.2,26.13v-2.25h-3.76v2.25h3.76Z"/>
      <path class="cls-1" d="M90.74,16.3c.7.78.84,1.27.61,2.26h-1.46c.2-1.13-.88-1.43-1.36-2.12-.06-.09-.22-.14-.34-.14-.69-.01-1.38,0-2.11,0v2.27h-1.52v-7.63c.14,0,.26-.02.38-.02,1.8,0,3.6,0,5.4,0,.5,0,1.07.56,1.07,1.06,0,1.08-.01,2.17,0,3.25,0,.53-.47.71-.68,1.08ZM89.86,12.47h-3.77v2.22h3.77v-2.22Z"/>
      <path class="cls-1" d="M76.25,29.97v-2.22h-3.82v2.22h-1.54c0-.11-.02-.23-.02-.35,0-1.55,0-3.1,0-4.65,0-.19.11-.42.24-.57.6-.64,1.23-1.27,1.86-1.89.09-.09.23-.19.34-.19,1.47-.01,2.95,0,4.45,0v7.65h-1.53ZM76.22,23.86c-.77,0-1.53-.15-2.19.05-.49.15-.84.77-1.26,1.18,0,0-.02.02-.03.03-.38.25-.38.61-.28,1h3.76v-2.25Z"/>
      <path class="cls-1" d="M83.45,14.77c0,.93,0,1.86,0,2.79,0,.42-.59,1.03-1.01,1.03-1.62,0-3.24,0-4.86,0-.41,0-1-.6-1-1.01,0-1.89,0-3.77,0-5.66,0-.44.6-1.01,1.03-1.01,1.6,0,3.21,0,4.81,0,.43,0,1.02.59,1.02,1.03,0,.94,0,1.89,0,2.83ZM81.9,12.47h-3.75v4.52h3.75v-4.52Z"/>
      <path class="cls-1" d="M65.95,18.56v-2.24h-3.79v2.23h-1.52c-.01-.12-.03-.24-.03-.36,0-1.55-.01-3.1.01-4.65,0-.21.12-.46.27-.61.55-.59,1.14-1.14,1.69-1.73.19-.2.36-.3.65-.3,1.28.02,2.56,0,3.84,0,.12,0,.25.01.39.02v7.63h-1.51ZM65.93,12.44c-.72,0-1.41,0-2.09,0-.11,0-.24.08-.32.16-.34.33-.65.7-1.01,1.01-.35.3-.44.65-.33,1.08h3.75v-2.26Z"/>
      <path class="cls-1" d="M94.09,29.98c0-.14-.02-.26-.02-.39,0-1.56,0-3.12,0-4.68,0-.17.07-.39.19-.51.6-.63,1.21-1.24,1.83-1.85.11-.11.28-.22.42-.22,1.45-.02,2.9,0,4.38,0v7.65h-1.48v-2.22h-3.81v2.22h-1.53ZM99.39,23.85c-.47,0-.92.04-1.36-.01-.68-.08-1.18.14-1.58.68-.14.19-.31.36-.49.5-.4.3-.39.68-.3,1.11h3.74v-2.28Z"/>
      <path class="cls-1" d="M56.74,28.43h3.77c.02-.24.03-.46.05-.7h1.51c-.05.74.28,1.55-.56,2.08-.15.1-.34.19-.51.19-1.58.01-3.15,0-4.73,0-.48,0-1.11-.62-1.11-1.09,0-1.84,0-3.69,0-5.53,0-.43.62-1.05,1.05-1.05,1.62,0,3.24,0,4.86,0,.39,0,1,.61,1.01,1,0,.41,0,.81,0,1.25h-1.51c-.01-.23-.03-.44-.05-.69h-3.77v4.55Z"/>
      <path class="cls-1" d="M68.39,29.98v-3.01h-3.77v3.01h-1.53v-7.62h1.5v2.98h3.8v-2.99h1.52v7.63h-1.52Z"/>
      <path class="cls-1" d="M16.76,19.76h-1.29c-.02-.2-.04-.39-.06-.61h-3.04v1.22c.61,0,1.21,0,1.81,0,.42,0,.85.03,1.27,0,.47-.04.85.06,1.1.48.09.16.19.34.2.51.02.62.02,1.24,0,1.86,0,.16-.1.32-.19.47-.27.48-.71.52-1.21.51-1.13-.03-2.25,0-3.38,0-.42,0-.93-.51-.94-.92,0-.31,0-.61,0-.94h1.27c.02.17.04.32.07.5h3.03v-1.14c-.15,0-.29-.02-.44-.02-.99,0-1.97,0-2.96,0-.62,0-.98-.36-.98-.96,0-.63,0-1.27,0-1.9,0-.47.47-.93.93-.93,1.28,0,2.56,0,3.84,0,.43,0,.94.51.94.94,0,.31,0,.61,0,.96Z"/>
      <path class="cls-1" d="M96.69,10.93h1.54c0,.61.02,1.22,0,1.84-.01.28.09.43.31.57.45.28.89.58,1.32.88.19.13.33.14.52,0,.47-.33.96-.62,1.42-.96.12-.09.21-.28.22-.43.02-.62.01-1.24.01-1.89h1.55c0,.91.01,1.8-.01,2.7,0,.11-.16.25-.27.33-.68.5-1.37,1-2.07,1.49-.22.15-.31.31-.31.58.02.83,0,1.66,0,2.52h-1.53c0-.84-.01-1.67,0-2.49,0-.25-.07-.41-.27-.55-.74-.51-1.48-1.03-2.21-1.57-.12-.08-.22-.26-.23-.4-.02-.86-.01-1.72-.01-2.62Z"/>
      <path class="cls-1" d="M29.44,19.76h-1.2c-.02-.21-.04-.4-.07-.61h-3.02v3.68h3.03c.02-.17.03-.32.05-.49h1.23c-.02.58.21,1.2-.38,1.65-.13.1-.31.19-.47.19-1.29.02-2.59.01-3.88,0-.42,0-.92-.51-.92-.93,0-1.48,0-2.96,0-4.43,0-.49.47-.96.96-.96,1.28,0,2.56,0,3.84,0,.37,0,.84.42.87.77.02.27,0,.53,0,.8,0,.1-.01.19-.03.32Z"/>
      <path class="cls-1" d="M88.39,28.45h4.97v1.53h-6.5v-7.63h1.53v6.1Z"/>
      <path class="cls-1" d="M20.92,24.16h-1.31c0-.58-.05-1.14.01-1.69.07-.57-.21-.88-.63-1.15-.45-.3-.89-.61-1.33-.94-.1-.08-.22-.21-.22-.32-.02-.71-.01-1.43-.01-2.17h1.26c0,.48,0,.94,0,1.4,0,.23.02.4.27.55.44.25.85.58,1.28.89.47-.32.94-.61,1.38-.95.11-.08.2-.27.2-.41.02-.49,0-.98,0-1.49h1.26c0,.75,0,1.48,0,2.2,0,.09-.09.2-.18.26-.57.42-1.17.81-1.73,1.25-.14.11-.26.32-.26.5-.03.67-.01,1.35-.01,2.07Z"/>
      <path class="cls-1" d="M34.51,35.18c-.45,0-.68-.22-.68-.66,0-.39.31-.7.69-.69.33,0,.67.34.68.67,0,.4-.27.68-.69.68Z"/>
      <path class="cls-1" d="M39.22,27.69c-.13.3-.23.58-.37.83-.04.06-.22.08-.32.05-.06-.02-.11-.19-.09-.27.09-.25.2-.49.33-.72.04-.08.2-.18.25-.15.09.04.13.17.2.27Z"/>
      <path class="cls-1" d="M33.14,36.08c-.34.21-.67.41-1.01.62-.04-.13-.14-.34-.1-.39.22-.2.47-.38.74-.53.07-.04.23.06.34.1,0,.06.02.13.03.19Z"/>
      <path class="cls-1" d="M30.66,37.22c.1.07.21.11.23.18.02.07-.02.2-.08.24-.24.16-.49.32-.75.45-.07.04-.22,0-.29-.06-.04-.03-.04-.22,0-.25.28-.2.58-.37.89-.56Z"/>
      <path class="cls-1" d="M37.37,30.99c-.03-.13-.12-.28-.08-.38.1-.26.24-.5.39-.73.05-.07.2-.12.29-.09.06.02.15.2.12.25-.15.31-.34.6-.52.89-.02.03-.08.03-.19.06Z"/>
      <path class="cls-1" d="M27.65,39.27c-.08-.06-.21-.1-.21-.16,0-.1.03-.26.1-.31.24-.14.5-.25.76-.34.06-.02.2.05.22.1.03.09.02.26-.03.29-.26.15-.54.27-.84.41Z"/>
      <path class="cls-1" d="M39.25,26.28c.13-.41.23-.75.36-1.08.01-.03.21,0,.33.01-.09.36-.17.71-.27,1.06,0,.03-.18,0-.42,0Z"/>
      <path class="cls-1" d="M35.83,33.14c-.01-.19-.07-.34-.02-.44.13-.23.29-.44.47-.63.07-.07.23-.04.35-.06,0,.11.05.25,0,.33-.15.23-.33.44-.5.65-.04.05-.12.06-.29.15Z"/>
      <path class="cls-1" d="M39.89,23.6c.05-.3.06-.5.12-.68.03-.09.2-.2.27-.18.08.02.18.17.19.27,0,.18-.03.37-.1.54-.06.14-.17.26-.26.39-.09-.13-.17-.27-.22-.34Z"/>
      <path class="cls-1" d="M25.37,40.04c-.07-.06-.2-.11-.21-.19,0-.08.07-.21.15-.24.24-.1.49-.17.75-.23.06-.01.2.08.21.13,0,.09-.03.25-.1.28-.24.1-.5.16-.79.25Z"/>
    </g>
  </g>
</svg>