<?xml version="1.0" encoding="UTF-8"?>
<svg id="_Слой_2" data-name="Слой_2" xmlns="http://www.w3.org/2000/svg" xmlns:xlink="http://www.w3.org/1999/xlink" viewBox="0 0 56.56 24.64">
  <defs>
    <style>
      .cls-1 {
        fill: url(#_Градієнт_без_назви_121);
      }

      .cls-2 {
        fill: url(#_Градієнт_без_назви_121-2);
      }

      .cls-3 {
        fill: url(#_Градієнт_без_назви_121-3);
      }

      .cls-4 {
        fill: url(#_Градієнт_без_назви_121-4);
      }

      .cls-5 {
        fill: url(#_Градієнт_без_назви_121-5);
      }

      .cls-6 {
        fill: url(#_Градієнт_без_назви_121-6);
      }
    </style>
    <linearGradient id="_Градієнт_без_назви_121" data-name="Градієнт без назви 121" x1="6.58" y1="12.18" x2="24.14" y2="12.18" gradientUnits="userSpaceOnUse">
      <stop offset="0" stop-color="#1d1d1b"/>
      <stop offset=".02" stop-color="#24211d"/>
      <stop offset=".06" stop-color="#3a2e24"/>
      <stop offset=".1" stop-color="#5d432f"/>
      <stop offset=".15" stop-color="#8e603f"/>
      <stop offset=".17" stop-color="#a56e47"/>
      <stop offset=".24" stop-color="#b17d47"/>
      <stop offset=".33" stop-color="#c49347"/>
      <stop offset=".68" stop-color="#c19147"/>
      <stop offset=".86" stop-color="#a0704e"/>
      <stop offset=".89" stop-color="#906647"/>
      <stop offset=".93" stop-color="#674c38"/>
      <stop offset=".99" stop-color="#26221e"/>
      <stop offset="1" stop-color="#1d1d1b"/>
    </linearGradient>
    <linearGradient id="_Градієнт_без_назви_121-2" data-name="Градієнт без назви 121" x1="32.49" y1="12.07" x2="49.63" y2="12.07" xlink:href="#_Градієнт_без_назви_121"/>
    <linearGradient id="_Градієнт_без_назви_121-3" data-name="Градієнт без назви 121" x1="20.9" y1="10.45" x2="35.51" y2="10.45" xlink:href="#_Градієнт_без_назви_121"/>
    <linearGradient id="_Градієнт_без_назви_121-4" data-name="Градієнт без назви 121" x1="35.43" y1="18.11" x2="56.37" y2="18.11" xlink:href="#_Градієнт_без_назви_121"/>
    <linearGradient id="_Градієнт_без_назви_121-5" data-name="Градієнт без назви 121" x1="0" y1="18.35" x2="20.94" y2="18.35" xlink:href="#_Градієнт_без_назви_121"/>
    <linearGradient id="_Градієнт_без_назви_121-6" data-name="Градієнт без назви 121" x1="0" y1="12.32" x2="56.56" y2="12.32" xlink:href="#_Градієнт_без_назви_121"/>
  </defs>
  <g id="_Шар_1" data-name="Шар_1">
    <g>
      <path class="cls-1" d="M22.48,22.32l1.66-.9L18.04,2.05c-1.82.72-4.05,1.79-6.4,3.39-2.11,1.43-3.78,2.92-5.05,4.22,5.3,4.22,10.6,8.44,15.9,12.66Z"/>
      <path class="cls-2" d="M32.49,21.21l1.46,1.2,15.68-12.89c-1.35-1.42-3.17-3.09-5.54-4.67-2.12-1.42-4.12-2.41-5.8-3.11-1.94,6.49-3.87,12.98-5.81,19.47Z"/>
      <path class="cls-3" d="M26.77,20.43h2.11L35.51,1.22c-1.98-.41-4.48-.76-7.38-.75-2.84,0-5.29.35-7.23.75,1.96,6.4,3.92,12.81,5.88,19.21Z"/>
      <path class="cls-4" d="M35.43,24.18c6.98.08,13.96.15,20.94.23-.14-1.66-.5-3.97-1.51-6.55-1.05-2.69-2.41-4.7-3.46-6.03l-15.97,12.36Z"/>
      <path class="cls-5" d="M20.94,24.42C13.96,24.49,6.98,24.57,0,24.64c.07-1.6.36-4,1.43-6.7,1.07-2.71,2.5-4.66,3.54-5.88,5.32,4.12,10.65,8.24,15.97,12.36Z"/>
      <path class="cls-6" d="M0,24.64c18.85,0,37.71,0,56.56,0-.3-2.43-1.09-6.37-3.49-10.54C46.74,3.13,35.04.71,33.7.46c-1.41-.27-6.82-1.18-13.36.69-1.81.52-13.79,4.15-18.53,15.53-1.34,3.22-1.71,6.12-1.82,7.96Z"/>
    </g>
  </g>
</svg>