<?xml version="1.0" encoding="UTF-8"?>
<svg id="_Слой_2" data-name="Слой_2" xmlns="http://www.w3.org/2000/svg" viewBox="0 0 8.69 6.28">
  <defs>
    <style>
      .cls-1 {
        fill: #111;
      }

      .cls-2 {
        fill: #262525;
      }

      .cls-3 {
        opacity: .48;
      }
    </style>
  </defs>
  <g id="_Шар_1" data-name="Шар_1">
    <g class="cls-3">
      <g>
        <rect class="cls-1" x="2.95" y="0" width="2.51" height="1.85" rx=".93" ry=".93"/>
        <path d="M1.48,1.49c.07-.07.14-.09.18-.1h5.11s.13.03.21.11c.07.07.1.14.11.18.53,1.53,1.06,3.06,1.6,4.58-1.29-.19-2.79-.32-4.47-.31-1.58,0-3,.13-4.22.31.46-1.52.92-3.04,1.38-4.56,0-.03.01-.14.1-.22Z"/>
        <path class="cls-2" d="M2.15,1.6c.43-.01.85-.03,1.28-.04-.42,1.37-.83,2.73-1.25,4.1-.49.08-.99.15-1.48.23.48-1.43.97-2.86,1.45-4.29Z"/>
        <path class="cls-2" d="M3.65,1.6h.37c-.4,1.33-.79,2.66-1.19,3.99-.15.02-.29.05-.44.07.42-1.35.84-2.71,1.26-4.06Z"/>
      </g>
    </g>
  </g>
</svg>